<svg width="28" height="28" viewBox="0 0 28 28" fill="none" xmlns="http://www.w3.org/2000/svg">
<path d="M14 15.6334L8.28333 21.3501C8.06944 21.5639 7.79722 21.6709 7.46666 21.6709C7.13611 21.6709 6.86388 21.5639 6.65 21.3501C6.43611 21.1362 6.32916 20.8639 6.32916 20.5334C6.32916 20.2028 6.43611 19.9306 6.65 19.7167L12.3667 14.0001L6.65 8.28339C6.43611 8.0695 6.32916 7.79728 6.32916 7.46672C6.32916 7.13617 6.43611 6.86395 6.65 6.65006C6.86388 6.43617 7.13611 6.32922 7.46666 6.32922C7.79722 6.32922 8.06944 6.43617 8.28333 6.65006L14 12.3667L19.7167 6.65006C19.9306 6.43617 20.2028 6.32922 20.5333 6.32922C20.8639 6.32922 21.1361 6.43617 21.35 6.65006C21.5639 6.86395 21.6708 7.13617 21.6708 7.46672C21.6708 7.79728 21.5639 8.0695 21.35 8.28339L15.6333 14.0001L21.35 19.7167C21.5639 19.9306 21.6708 20.2028 21.6708 20.5334C21.6708 20.8639 21.5639 21.1362 21.35 21.3501C21.1361 21.5639 20.8639 21.6709 20.5333 21.6709C20.2028 21.6709 19.9306 21.5639 19.7167 21.3501L14 15.6334Z" fill="black"/>
</svg>
