<svg width="28" height="29" viewBox="0 0 28 29" fill="none" xmlns="http://www.w3.org/2000/svg">
<path d="M5.83325 4H20.9999C21.9282 4 22.8184 4.36875 23.4748 5.02513C24.1312 5.6815 24.4999 6.57174 24.4999 7.5V18C24.4999 18.9283 24.1312 19.8185 23.4748 20.4749C22.8184 21.1313 21.9282 21.5 20.9999 21.5H15.6449L11.3283 25.8283C11.1183 26.0383 10.8266 26.1667 10.4999 26.1667C10.1905 26.1667 9.89375 26.0438 9.67496 25.825C9.45617 25.6062 9.33325 25.3094 9.33325 25V21.5H5.83325C4.90499 21.5 4.01476 21.1313 3.35838 20.4749C2.702 19.8185 2.33325 18.9283 2.33325 18V7.5C2.33325 6.57174 2.702 5.6815 3.35838 5.02513C4.01476 4.36875 4.90499 4 5.83325 4ZM20.9999 5.16667H5.83325C5.21441 5.16667 4.62092 5.4125 4.18334 5.85008C3.74575 6.28767 3.49992 6.88116 3.49992 7.5V18C3.49992 18.6188 3.74575 19.2123 4.18334 19.6499C4.62092 20.0875 5.21441 20.3333 5.83325 20.3333H10.4999V25L15.1666 20.3333H20.9999C21.6188 20.3333 22.2122 20.0875 22.6498 19.6499C23.0874 19.2123 23.3333 18.6188 23.3333 18V7.5C23.3333 6.88116 23.0874 6.28767 22.6498 5.85008C22.2122 5.4125 21.6188 5.16667 20.9999 5.16667Z" fill="#61646B"/>
</svg>
