<svg width="70" height="70" viewBox="0 0 70 70" fill="none" xmlns="http://www.w3.org/2000/svg">
  <!-- 흰 원 배경 -->
  <circle cx="35" cy="35" r="35" fill="white" />

  <!-- 네가 준 아이콘 path 그대로 유지 -->
  <path d="M61.9167 57.3241C65.5096 53.0049 68.0085 47.8845 69.202 42.3963C70.3954 36.908 70.2484 31.2132 68.7733 25.7937C67.2982 20.3742 64.5385 15.3895 60.7275 11.261C56.9165 7.13264 52.1665 3.98207 46.8792 2.07587C41.5918 0.169659 35.9228 -0.43611 30.3516 0.309805C24.7804 1.05572 19.471 3.13137 14.8724 6.36118C10.2739 9.59098 6.52153 13.8799 3.93279 18.8652C1.34405 23.8504 -0.00490999 29.3853 1.34287e-05 35.0016C0.00211656 43.1661 2.88162 51.0691 8.13332 57.3241L8.08329 57.3666C8.25841 57.5766 8.45856 57.7565 8.63868 57.964C8.86385 58.2215 9.10652 58.464 9.33918 58.7139C10.0363 59.4755 10.7619 60.2004 11.5157 60.8887C11.7492 61.0953 11.9827 61.297 12.2162 61.4936C13.0168 62.1852 13.8424 62.8368 14.693 63.4484C14.8031 63.5234 14.9032 63.6209 15.0132 63.6984V63.6684C20.8725 67.7887 27.8626 70 35.0275 70C42.1925 70 49.1825 67.7887 55.0418 63.6684V63.6984C55.1519 63.6209 55.2495 63.5234 55.3621 63.4484C56.2127 62.8351 57.0383 62.1835 57.8388 61.4936C58.0723 61.2953 58.3058 61.0937 58.5393 60.8887C59.2915 60.2004 60.017 59.4755 60.7159 58.7139C60.9485 58.464 61.1887 58.2215 61.4164 57.964C61.594 57.7565 61.7966 57.5766 61.9718 57.3641L61.9167 57.3241ZM35.025 15.0039C37.2517 15.0039 39.4283 15.6637 41.2797 16.8997C43.131 18.1357 44.574 19.8925 45.4261 21.9479C46.2782 24.0034 46.5011 26.2651 46.0668 28.4472C45.6324 30.6292 44.5601 32.6335 42.9857 34.2067C41.4112 35.7798 39.4052 36.8512 37.2214 37.2852C35.0375 37.7193 32.7739 37.4965 30.7168 36.6451C28.6596 35.7937 26.9014 34.3519 25.6643 32.5021C24.4273 30.6523 23.767 28.4774 23.767 26.2526C23.767 23.2693 24.9531 20.4081 27.0644 18.2986C29.1757 16.1891 32.0392 15.0039 35.025 15.0039ZM15.0282 57.3241C15.0716 54.0419 16.4066 50.9087 18.7443 48.6024C21.082 46.2961 24.2345 45.0022 27.5197 45.0005H42.5304C45.8156 45.0022 48.9681 46.2961 51.3058 48.6024C53.6435 50.9087 54.9784 54.0419 55.0218 57.3241C49.535 62.2644 42.411 64.9984 35.025 64.9984C27.6391 64.9984 20.5151 62.2644 15.0282 57.3241Z" fill="#FDE3E3"/>
</svg>
