<svg width="139" height="30" viewBox="0 0 139 30" fill="none" xmlns="http://www.w3.org/2000/svg">
<path d="M0.185 29V3.065H5.365V29H0.185ZM67.2114 29V3.065H72.3914V24.66H82.9264V29H67.2114ZM87.0257 29V9.4H92.1707V29H87.0257ZM89.6157 6.215C88.7057 6.215 87.9824 5.97 87.4457 5.48C86.9091 4.96667 86.6407 4.27833 86.6407 3.415C86.6407 2.575 86.9091 1.89833 87.4457 1.385C87.9824 0.871665 88.7057 0.614998 89.6157 0.614998C90.4791 0.614998 91.1907 0.871665 91.7507 1.385C92.3107 1.89833 92.5907 2.575 92.5907 3.415C92.5907 4.27833 92.3107 4.96667 91.7507 5.48C91.1907 5.97 90.4791 6.215 89.6157 6.215ZM97.6556 29V9.4H101.856L102.241 11.99H102.346C103.209 11.15 104.154 10.4267 105.181 9.82C106.207 9.21333 107.386 8.91 108.716 8.91C110.839 8.91 112.379 9.61 113.336 11.01C114.292 12.3867 114.771 14.3117 114.771 16.785V29H109.626V17.415C109.626 15.8983 109.404 14.8367 108.961 14.23C108.541 13.6233 107.841 13.32 106.861 13.32C106.067 13.32 105.367 13.5067 104.761 13.88C104.177 14.2533 103.524 14.8017 102.801 15.525V29H97.6556ZM120.078 29V1.07H125.153V17.8H125.293L131.978 9.4H137.613L130.893 17.485L138.243 29H132.643L127.883 20.845L125.153 24.03V29H120.078Z" fill="black"/>
<path d="M18.2127 29.49C16.5794 29.49 15.1561 29.0817 13.9427 28.265C12.7527 27.4483 11.8311 26.27 11.1777 24.73C10.5244 23.19 10.1977 21.3467 10.1977 19.2C10.1977 17.0767 10.5827 15.2567 11.3527 13.74C12.1461 12.2 13.1727 11.01 14.4327 10.17C15.6927 9.33 17.0227 8.91 18.4227 8.91C19.5194 8.91 20.4411 9.10833 21.1877 9.505C21.9577 9.87833 22.6927 10.3917 23.3927 11.045L23.2177 7.965V1.07H28.3627V29H24.1627L23.7777 26.97H23.6377C22.9144 27.67 22.0861 28.265 21.1527 28.755C20.2194 29.245 19.2394 29.49 18.2127 29.49ZM19.5427 25.255C20.2427 25.255 20.8844 25.1033 21.4677 24.8C22.0744 24.4733 22.6577 23.9483 23.2177 23.225V14.615C22.6344 14.0783 22.0277 13.705 21.3977 13.495C20.7911 13.2617 20.1727 13.145 19.5427 13.145C18.8194 13.145 18.1427 13.3783 17.5127 13.845C16.9061 14.2883 16.4161 14.9533 16.0427 15.84C15.6694 16.7267 15.4827 17.8233 15.4827 19.13C15.4827 20.4833 15.6344 21.615 15.9377 22.525C16.2644 23.435 16.7311 24.1233 17.3377 24.59C17.9444 25.0333 18.6794 25.255 19.5427 25.255ZM42.0321 29.49C40.3988 29.49 38.8588 29.0817 37.4121 28.265C35.9888 27.4483 34.8338 26.2817 33.9471 24.765C33.0605 23.225 32.6171 21.37 32.6171 19.2C32.6171 17.03 33.0605 15.1867 33.9471 13.67C34.8338 12.13 35.9888 10.9517 37.4121 10.135C38.8588 9.31833 40.3988 8.91 42.0321 8.91C43.2688 8.91 44.4471 9.14333 45.5671 9.61C46.6871 10.0767 47.6905 10.7533 48.5771 11.64C49.4638 12.5033 50.1638 13.5767 50.6771 14.86C51.1905 16.12 51.4471 17.5667 51.4471 19.2C51.4471 21.37 51.0038 23.225 50.1171 24.765C49.2305 26.2817 48.0638 27.4483 46.6171 28.265C45.1938 29.0817 43.6655 29.49 42.0321 29.49ZM42.0321 25.29C42.9188 25.29 43.6655 25.045 44.2721 24.555C44.9021 24.0417 45.3688 23.33 45.6721 22.42C45.9988 21.51 46.1621 20.4367 46.1621 19.2C46.1621 17.9633 45.9988 16.89 45.6721 15.98C45.3688 15.07 44.9021 14.37 44.2721 13.88C43.6655 13.3667 42.9188 13.11 42.0321 13.11C41.1455 13.11 40.3871 13.3667 39.7571 13.88C39.1505 14.37 38.6838 15.07 38.3571 15.98C38.0538 16.89 37.9021 17.9633 37.9021 19.2C37.9021 20.4367 38.0538 21.51 38.3571 22.42C38.6838 23.33 39.1505 24.0417 39.7571 24.555C40.3871 25.045 41.1455 25.29 42.0321 25.29ZM60.6163 29.49C59.403 29.49 58.4463 29.245 57.7463 28.755C57.0463 28.2417 56.533 27.5417 56.2063 26.655C55.903 25.745 55.7513 24.695 55.7513 23.505V1.07H60.8963V23.715C60.8963 24.2983 61.0013 24.7067 61.2113 24.94C61.4447 25.1733 61.678 25.29 61.9113 25.29C62.028 25.29 62.133 25.29 62.2263 25.29C62.3197 25.2667 62.448 25.2433 62.6113 25.22L63.2413 29.035C62.938 29.1517 62.5647 29.2567 62.1213 29.35C61.7013 29.4433 61.1997 29.49 60.6163 29.49Z" fill="#F6A8A8"/>
</svg>
