<svg width="28" height="28" viewBox="0 0 28 28" fill="none" xmlns="http://www.w3.org/2000/svg">
<path fill-rule="evenodd" clip-rule="evenodd" d="M4.375 10.5C4.375 7.13324 7.13324 4.375 10.5 4.375H17.5C20.8668 4.375 23.625 7.13324 23.625 10.5V16.625H16.3333C15.8501 16.625 15.4583 17.0168 15.4583 17.5C15.4583 18.3001 14.8001 18.9583 14 18.9583C13.1999 18.9583 12.5417 18.3001 12.5417 17.5C12.5417 17.0168 12.1499 16.625 11.6667 16.625H4.375V10.5ZM2.625 17.5C2.625 21.8332 6.16675 25.375 10.5 25.375H17.5C21.8332 25.375 25.375 21.8332 25.375 17.5V10.5C25.375 6.16675 21.8332 2.625 17.5 2.625H10.5C6.16675 2.625 2.625 6.16675 2.625 10.5V17.5ZM4.43787 18.375H10.9134C11.296 19.7189 12.5365 20.7083 14 20.7083C15.4635 20.7083 16.704 19.7189 17.0866 18.375H23.5621C23.1338 21.3318 20.5698 23.625 17.5 23.625H10.5C7.43014 23.625 4.86619 21.3318 4.43787 18.375Z" fill="#61646B"/>
</svg>
