<svg width="25" height="25" viewBox="0 0 25 25" fill="none" xmlns="http://www.w3.org/2000/svg">
<path d="M12.5724 13.1658C13.1247 13.1658 13.5724 12.7181 13.5724 12.1658C13.5724 11.6135 13.1247 11.1658 12.5724 11.1658C12.0201 11.1658 11.5724 11.6135 11.5724 12.1658C11.5724 12.7181 12.0201 13.1658 12.5724 13.1658Z" stroke="black" stroke-width="2" stroke-linecap="round" stroke-linejoin="round"/>
<path d="M12.5724 6.16577C13.1247 6.16577 13.5724 5.71806 13.5724 5.16577C13.5724 4.61349 13.1247 4.16577 12.5724 4.16577C12.0201 4.16577 11.5724 4.61349 11.5724 5.16577C11.5724 5.71806 12.0201 6.16577 12.5724 6.16577Z" stroke="black" stroke-width="2" stroke-linecap="round" stroke-linejoin="round"/>
<path d="M12.5724 20.1658C13.1247 20.1658 13.5724 19.7181 13.5724 19.1658C13.5724 18.6135 13.1247 18.1658 12.5724 18.1658C12.0201 18.1658 11.5724 18.6135 11.5724 19.1658C11.5724 19.7181 12.0201 20.1658 12.5724 20.1658Z" stroke="black" stroke-width="2" stroke-linecap="round" stroke-linejoin="round"/>
</svg>
