<svg width="28" height="28" viewBox="0 0 28 28" fill="none" xmlns="http://www.w3.org/2000/svg">
<path fill-rule="evenodd" clip-rule="evenodd" d="M13.708 18.8468C13.225 18.8468 12.833 18.4548 12.833 17.9718V9.42358C12.833 8.94058 13.225 8.54858 13.708 8.54858C14.191 8.54858 14.583 8.94058 14.583 9.42358V17.9718C14.583 18.4548 14.191 18.8468 13.708 18.8468Z" fill="#61646B"/>
<path fill-rule="evenodd" clip-rule="evenodd" d="M17.9858 14.572H9.43066C8.9465 14.572 8.55566 14.18 8.55566 13.697C8.55566 13.214 8.9465 12.822 9.43066 12.822H17.9858C18.4688 12.822 18.8608 13.214 18.8608 13.697C18.8608 14.18 18.4688 14.572 17.9858 14.572Z" fill="#61646B"/>
<path fill-rule="evenodd" clip-rule="evenodd" d="M8.24117 2.91675C5.00717 2.91675 2.9165 5.12991 2.9165 8.55758V18.8592C2.9165 22.2869 5.00717 24.5001 8.24117 24.5001H19.1752C22.4103 24.5001 24.4998 22.2869 24.4998 18.8592V8.55758C24.4998 5.12991 22.4103 2.91675 19.1752 2.91675H8.24117ZM19.1752 26.2501H8.24117C4.00967 26.2501 1.1665 23.2797 1.1665 18.8592V8.55758C1.1665 4.13708 4.00967 1.16675 8.24117 1.16675H19.1752C23.4067 1.16675 26.2498 4.13708 26.2498 8.55758V18.8592C26.2498 23.2797 23.4067 26.2501 19.1752 26.2501Z" fill="currentColor"/>
</svg>
